<?xml version="1.0" encoding="utf-8"?>
<!-- Generator: Adobe Illustrator 24.1.2, SVG Export Plug-In . SVG Version: 6.00 Build 0)  -->
<svg version="1.1" id="Layer_1" xmlns="http://www.w3.org/2000/svg" xmlns:xlink="http://www.w3.org/1999/xlink" x="0px" y="0px"
	 viewBox="0 0 48.4 48.4" style="enable-background:new 0 0 48.4 48.4;" xml:space="preserve">
<style type="text/css">
	.st0{fill:none;stroke:#000000;stroke-width:3;stroke-linejoin:round;}
</style>
<g id="Layer_2_3_">
	<g id="Layer_1-2_2_">
		<path class="st0" d="M33.2,19c-2.8-2-5.9-3.8-9-5.2C18.8,11.3,13,9.8,7,9.3"/>
		<path class="st0" d="M24.2,13.7c-8.6,3.9-16,10.1-21.4,17.9"/>
		<path class="st0" d="M15.1,19c-1,9.4,0.7,18.9,4.8,27.5"/>
		<path class="st0" d="M15.1,29.4c2.8,2,5.9,3.8,9,5.2c5.4,2.4,11.2,3.9,17.1,4.4"/>
		<path class="st0" d="M24.2,34.6c3.2-1.4,6.2-3.2,9-5.2c4.8-3.5,9-7.8,12.4-12.6"/>
		<path class="st0" d="M33.2,29.4c0.4-3.5,0.4-7,0-10.4C32.6,13,31,7.3,28.5,1.9"/>
		<circle class="st0" cx="24.2" cy="24.2" r="22.7"/>
	</g>
</g>
</svg>
